<mxfile host="app.diagrams.net" agent="Mozilla/5.0 (Windows NT 10.0; Win64; x64) AppleWebKit/537.36 (KHTML, like Gecko) Chrome/137.0.0.0 Safari/537.36 Edg/137.0.0.0" version="27.1.3">
  <diagram id="C5RBs43oDa-KdzZeNtuy" name="Page-1">
    <mxGraphModel dx="1418" dy="786" grid="1" gridSize="10" guides="1" tooltips="1" connect="1" arrows="1" fold="1" page="1" pageScale="1" pageWidth="827" pageHeight="1169" math="0" shadow="0">
      <root>
        <mxCell id="WIyWlLk6GJQsqaUBKTNV-0" />
        <mxCell id="WIyWlLk6GJQsqaUBKTNV-1" parent="WIyWlLk6GJQsqaUBKTNV-0" />
        <mxCell id="FEZSxYOMVHcEeAAmnI2d-1" style="edgeStyle=orthogonalEdgeStyle;rounded=0;orthogonalLoop=1;jettySize=auto;html=1;exitX=0.5;exitY=1;exitDx=0;exitDy=0;" edge="1" parent="WIyWlLk6GJQsqaUBKTNV-1" source="FEZSxYOMVHcEeAAmnI2d-0">
          <mxGeometry relative="1" as="geometry">
            <mxPoint x="414" y="160" as="targetPoint" />
          </mxGeometry>
        </mxCell>
        <mxCell id="FEZSxYOMVHcEeAAmnI2d-0" value="For snap in total_snaps" style="ellipse;whiteSpace=wrap;html=1;" vertex="1" parent="WIyWlLk6GJQsqaUBKTNV-1">
          <mxGeometry x="354" y="40" width="120" height="80" as="geometry" />
        </mxCell>
        <mxCell id="FEZSxYOMVHcEeAAmnI2d-2" value="Get play type based on coach tendencies" style="rounded=0;whiteSpace=wrap;html=1;" vertex="1" parent="WIyWlLk6GJQsqaUBKTNV-1">
          <mxGeometry x="354" y="160" width="120" height="60" as="geometry" />
        </mxCell>
        <mxCell id="FEZSxYOMVHcEeAAmnI2d-3" style="edgeStyle=orthogonalEdgeStyle;rounded=0;orthogonalLoop=1;jettySize=auto;html=1;exitX=0.5;exitY=1;exitDx=0;exitDy=0;" edge="1" parent="WIyWlLk6GJQsqaUBKTNV-1" source="FEZSxYOMVHcEeAAmnI2d-2">
          <mxGeometry relative="1" as="geometry">
            <mxPoint x="414" y="250" as="targetPoint" />
          </mxGeometry>
        </mxCell>
        <mxCell id="FEZSxYOMVHcEeAAmnI2d-5" value="Pass" style="edgeStyle=orthogonalEdgeStyle;rounded=0;orthogonalLoop=1;jettySize=auto;html=1;exitX=0;exitY=0.5;exitDx=0;exitDy=0;verticalAlign=bottom;" edge="1" parent="WIyWlLk6GJQsqaUBKTNV-1" source="FEZSxYOMVHcEeAAmnI2d-4">
          <mxGeometry relative="1" as="geometry">
            <mxPoint x="220" y="340" as="targetPoint" />
            <mxPoint x="320" y="290" as="sourcePoint" />
            <Array as="points">
              <mxPoint x="221" y="290" />
            </Array>
          </mxGeometry>
        </mxCell>
        <mxCell id="FEZSxYOMVHcEeAAmnI2d-8" value="Run" style="edgeStyle=orthogonalEdgeStyle;rounded=0;orthogonalLoop=1;jettySize=auto;html=1;exitX=0;exitY=1;exitDx=0;exitDy=0;align=right;verticalAlign=bottom;" edge="1" parent="WIyWlLk6GJQsqaUBKTNV-1" source="FEZSxYOMVHcEeAAmnI2d-4">
          <mxGeometry relative="1" as="geometry">
            <mxPoint x="360" y="370" as="targetPoint" />
          </mxGeometry>
        </mxCell>
        <mxCell id="FEZSxYOMVHcEeAAmnI2d-12" value="FG" style="edgeStyle=orthogonalEdgeStyle;rounded=0;orthogonalLoop=1;jettySize=auto;html=1;exitX=1;exitY=1;exitDx=0;exitDy=0;entryX=0.5;entryY=0;entryDx=0;entryDy=0;verticalAlign=bottom;align=left;" edge="1" parent="WIyWlLk6GJQsqaUBKTNV-1" source="FEZSxYOMVHcEeAAmnI2d-4" target="FEZSxYOMVHcEeAAmnI2d-11">
          <mxGeometry relative="1" as="geometry" />
        </mxCell>
        <mxCell id="FEZSxYOMVHcEeAAmnI2d-13" value="Punt" style="edgeStyle=orthogonalEdgeStyle;rounded=0;orthogonalLoop=1;jettySize=auto;html=1;exitX=1;exitY=0.5;exitDx=0;exitDy=0;verticalAlign=bottom;" edge="1" parent="WIyWlLk6GJQsqaUBKTNV-1" source="FEZSxYOMVHcEeAAmnI2d-4">
          <mxGeometry relative="1" as="geometry">
            <mxPoint x="560" y="290" as="targetPoint" />
          </mxGeometry>
        </mxCell>
        <mxCell id="FEZSxYOMVHcEeAAmnI2d-4" value="play_type" style="rhombus;whiteSpace=wrap;html=1;" vertex="1" parent="WIyWlLk6GJQsqaUBKTNV-1">
          <mxGeometry x="360" y="250" width="110" height="80" as="geometry" />
        </mxCell>
        <mxCell id="FEZSxYOMVHcEeAAmnI2d-25" style="edgeStyle=orthogonalEdgeStyle;rounded=0;orthogonalLoop=1;jettySize=auto;html=1;exitX=0.5;exitY=1;exitDx=0;exitDy=0;entryX=0.5;entryY=0;entryDx=0;entryDy=0;" edge="1" parent="WIyWlLk6GJQsqaUBKTNV-1" source="FEZSxYOMVHcEeAAmnI2d-6" target="FEZSxYOMVHcEeAAmnI2d-24">
          <mxGeometry relative="1" as="geometry" />
        </mxCell>
        <mxCell id="FEZSxYOMVHcEeAAmnI2d-6" value="Get completion probability based on QB, WR" style="rounded=0;whiteSpace=wrap;html=1;" vertex="1" parent="WIyWlLk6GJQsqaUBKTNV-1">
          <mxGeometry x="160" y="340" width="120" height="60" as="geometry" />
        </mxCell>
        <mxCell id="FEZSxYOMVHcEeAAmnI2d-31" style="edgeStyle=orthogonalEdgeStyle;rounded=0;orthogonalLoop=1;jettySize=auto;html=1;exitX=0.5;exitY=1;exitDx=0;exitDy=0;entryX=0.5;entryY=0;entryDx=0;entryDy=0;" edge="1" parent="WIyWlLk6GJQsqaUBKTNV-1" source="FEZSxYOMVHcEeAAmnI2d-9" target="FEZSxYOMVHcEeAAmnI2d-30">
          <mxGeometry relative="1" as="geometry" />
        </mxCell>
        <mxCell id="FEZSxYOMVHcEeAAmnI2d-9" value="Get yards based on RB, OL, Def" style="rounded=0;whiteSpace=wrap;html=1;" vertex="1" parent="WIyWlLk6GJQsqaUBKTNV-1">
          <mxGeometry x="300" y="370" width="120" height="40" as="geometry" />
        </mxCell>
        <mxCell id="FEZSxYOMVHcEeAAmnI2d-16" value="Yes" style="edgeStyle=orthogonalEdgeStyle;rounded=0;orthogonalLoop=1;jettySize=auto;html=1;exitX=0.5;exitY=1;exitDx=0;exitDy=0;entryX=0.5;entryY=0;entryDx=0;entryDy=0;align=left;" edge="1" parent="WIyWlLk6GJQsqaUBKTNV-1" source="FEZSxYOMVHcEeAAmnI2d-11" target="FEZSxYOMVHcEeAAmnI2d-15">
          <mxGeometry relative="1" as="geometry" />
        </mxCell>
        <mxCell id="FEZSxYOMVHcEeAAmnI2d-23" value="No" style="edgeStyle=orthogonalEdgeStyle;rounded=0;orthogonalLoop=1;jettySize=auto;html=1;exitX=1;exitY=0.5;exitDx=0;exitDy=0;entryX=0;entryY=0.5;entryDx=0;entryDy=0;verticalAlign=bottom;" edge="1" parent="WIyWlLk6GJQsqaUBKTNV-1" source="FEZSxYOMVHcEeAAmnI2d-11" target="FEZSxYOMVHcEeAAmnI2d-19">
          <mxGeometry relative="1" as="geometry" />
        </mxCell>
        <mxCell id="FEZSxYOMVHcEeAAmnI2d-11" value="FG Good?" style="rhombus;whiteSpace=wrap;html=1;" vertex="1" parent="WIyWlLk6GJQsqaUBKTNV-1">
          <mxGeometry x="440" y="380" width="80" height="60" as="geometry" />
        </mxCell>
        <mxCell id="FEZSxYOMVHcEeAAmnI2d-18" style="edgeStyle=orthogonalEdgeStyle;rounded=0;orthogonalLoop=1;jettySize=auto;html=1;exitX=0.5;exitY=1;exitDx=0;exitDy=0;entryX=0.5;entryY=0;entryDx=0;entryDy=0;" edge="1" parent="WIyWlLk6GJQsqaUBKTNV-1" source="FEZSxYOMVHcEeAAmnI2d-14" target="FEZSxYOMVHcEeAAmnI2d-17">
          <mxGeometry relative="1" as="geometry" />
        </mxCell>
        <mxCell id="FEZSxYOMVHcEeAAmnI2d-14" value="Get punt net yards from punter, PR" style="rounded=0;whiteSpace=wrap;html=1;" vertex="1" parent="WIyWlLk6GJQsqaUBKTNV-1">
          <mxGeometry x="560" y="265" width="120" height="50" as="geometry" />
        </mxCell>
        <mxCell id="FEZSxYOMVHcEeAAmnI2d-21" style="edgeStyle=orthogonalEdgeStyle;rounded=0;orthogonalLoop=1;jettySize=auto;html=1;exitX=1;exitY=0.5;exitDx=0;exitDy=0;entryX=0.5;entryY=1;entryDx=0;entryDy=0;" edge="1" parent="WIyWlLk6GJQsqaUBKTNV-1" source="FEZSxYOMVHcEeAAmnI2d-15" target="FEZSxYOMVHcEeAAmnI2d-19">
          <mxGeometry relative="1" as="geometry" />
        </mxCell>
        <mxCell id="FEZSxYOMVHcEeAAmnI2d-15" value="pos_score += 3" style="rounded=0;whiteSpace=wrap;html=1;" vertex="1" parent="WIyWlLk6GJQsqaUBKTNV-1">
          <mxGeometry x="430" y="480" width="100" height="30" as="geometry" />
        </mxCell>
        <mxCell id="FEZSxYOMVHcEeAAmnI2d-20" style="edgeStyle=orthogonalEdgeStyle;rounded=0;orthogonalLoop=1;jettySize=auto;html=1;exitX=0.5;exitY=1;exitDx=0;exitDy=0;entryX=0.5;entryY=0;entryDx=0;entryDy=0;" edge="1" parent="WIyWlLk6GJQsqaUBKTNV-1" source="FEZSxYOMVHcEeAAmnI2d-17" target="FEZSxYOMVHcEeAAmnI2d-19">
          <mxGeometry relative="1" as="geometry" />
        </mxCell>
        <mxCell id="FEZSxYOMVHcEeAAmnI2d-17" value="Update yardline" style="rounded=0;whiteSpace=wrap;html=1;" vertex="1" parent="WIyWlLk6GJQsqaUBKTNV-1">
          <mxGeometry x="560" y="340" width="120" height="30" as="geometry" />
        </mxCell>
        <mxCell id="FEZSxYOMVHcEeAAmnI2d-22" style="edgeStyle=orthogonalEdgeStyle;rounded=0;orthogonalLoop=1;jettySize=auto;html=1;exitX=1;exitY=0.5;exitDx=0;exitDy=0;entryX=1;entryY=0.5;entryDx=0;entryDy=0;" edge="1" parent="WIyWlLk6GJQsqaUBKTNV-1" source="FEZSxYOMVHcEeAAmnI2d-19" target="FEZSxYOMVHcEeAAmnI2d-0">
          <mxGeometry relative="1" as="geometry" />
        </mxCell>
        <mxCell id="FEZSxYOMVHcEeAAmnI2d-19" value="Turnover" style="rounded=0;whiteSpace=wrap;html=1;" vertex="1" parent="WIyWlLk6GJQsqaUBKTNV-1">
          <mxGeometry x="560" y="395" width="120" height="30" as="geometry" />
        </mxCell>
        <mxCell id="FEZSxYOMVHcEeAAmnI2d-28" value="No" style="edgeStyle=orthogonalEdgeStyle;rounded=0;orthogonalLoop=1;jettySize=auto;html=1;exitX=0;exitY=0.5;exitDx=0;exitDy=0;entryX=0.5;entryY=0;entryDx=0;entryDy=0;verticalAlign=bottom;" edge="1" parent="WIyWlLk6GJQsqaUBKTNV-1" source="FEZSxYOMVHcEeAAmnI2d-24" target="FEZSxYOMVHcEeAAmnI2d-27">
          <mxGeometry relative="1" as="geometry" />
        </mxCell>
        <mxCell id="FEZSxYOMVHcEeAAmnI2d-29" value="Yes" style="edgeStyle=orthogonalEdgeStyle;rounded=0;orthogonalLoop=1;jettySize=auto;html=1;exitX=0.5;exitY=1;exitDx=0;exitDy=0;entryX=0.5;entryY=0;entryDx=0;entryDy=0;align=left;" edge="1" parent="WIyWlLk6GJQsqaUBKTNV-1" source="FEZSxYOMVHcEeAAmnI2d-24" target="FEZSxYOMVHcEeAAmnI2d-26">
          <mxGeometry relative="1" as="geometry" />
        </mxCell>
        <mxCell id="FEZSxYOMVHcEeAAmnI2d-24" value="Pass Complete?" style="rhombus;whiteSpace=wrap;html=1;" vertex="1" parent="WIyWlLk6GJQsqaUBKTNV-1">
          <mxGeometry x="160" y="425" width="120" height="55" as="geometry" />
        </mxCell>
        <mxCell id="FEZSxYOMVHcEeAAmnI2d-32" style="edgeStyle=orthogonalEdgeStyle;rounded=0;orthogonalLoop=1;jettySize=auto;html=1;exitX=0.5;exitY=1;exitDx=0;exitDy=0;entryX=0;entryY=0.5;entryDx=0;entryDy=0;" edge="1" parent="WIyWlLk6GJQsqaUBKTNV-1" source="FEZSxYOMVHcEeAAmnI2d-26" target="FEZSxYOMVHcEeAAmnI2d-30">
          <mxGeometry relative="1" as="geometry" />
        </mxCell>
        <mxCell id="FEZSxYOMVHcEeAAmnI2d-26" value="Rec += 1, get yards based on QB, WR, Def" style="rounded=0;whiteSpace=wrap;html=1;" vertex="1" parent="WIyWlLk6GJQsqaUBKTNV-1">
          <mxGeometry x="160" y="525" width="120" height="60" as="geometry" />
        </mxCell>
        <mxCell id="FEZSxYOMVHcEeAAmnI2d-33" style="edgeStyle=orthogonalEdgeStyle;rounded=0;orthogonalLoop=1;jettySize=auto;html=1;exitX=0.5;exitY=1;exitDx=0;exitDy=0;entryX=0;entryY=0.5;entryDx=0;entryDy=0;" edge="1" parent="WIyWlLk6GJQsqaUBKTNV-1" source="FEZSxYOMVHcEeAAmnI2d-27" target="FEZSxYOMVHcEeAAmnI2d-30">
          <mxGeometry relative="1" as="geometry">
            <mxPoint x="105" y="620" as="targetPoint" />
          </mxGeometry>
        </mxCell>
        <mxCell id="FEZSxYOMVHcEeAAmnI2d-27" value="yards = 0" style="rounded=0;whiteSpace=wrap;html=1;" vertex="1" parent="WIyWlLk6GJQsqaUBKTNV-1">
          <mxGeometry x="70" y="480" width="70" height="30" as="geometry" />
        </mxCell>
        <mxCell id="FEZSxYOMVHcEeAAmnI2d-35" style="edgeStyle=orthogonalEdgeStyle;rounded=0;orthogonalLoop=1;jettySize=auto;html=1;exitX=0.5;exitY=1;exitDx=0;exitDy=0;entryX=0.5;entryY=0;entryDx=0;entryDy=0;" edge="1" parent="WIyWlLk6GJQsqaUBKTNV-1" source="FEZSxYOMVHcEeAAmnI2d-30" target="FEZSxYOMVHcEeAAmnI2d-34">
          <mxGeometry relative="1" as="geometry" />
        </mxCell>
        <mxCell id="FEZSxYOMVHcEeAAmnI2d-30" value="Update yardline" style="rounded=0;whiteSpace=wrap;html=1;" vertex="1" parent="WIyWlLk6GJQsqaUBKTNV-1">
          <mxGeometry x="310" y="600" width="100" height="30" as="geometry" />
        </mxCell>
        <mxCell id="FEZSxYOMVHcEeAAmnI2d-37" value="Yes" style="edgeStyle=orthogonalEdgeStyle;rounded=0;orthogonalLoop=1;jettySize=auto;html=1;exitX=1;exitY=0.5;exitDx=0;exitDy=0;entryX=0;entryY=0.5;entryDx=0;entryDy=0;verticalAlign=bottom;" edge="1" parent="WIyWlLk6GJQsqaUBKTNV-1" source="FEZSxYOMVHcEeAAmnI2d-34" target="FEZSxYOMVHcEeAAmnI2d-36">
          <mxGeometry relative="1" as="geometry" />
        </mxCell>
        <mxCell id="FEZSxYOMVHcEeAAmnI2d-40" value="No" style="edgeStyle=orthogonalEdgeStyle;rounded=0;orthogonalLoop=1;jettySize=auto;html=1;exitX=0.5;exitY=1;exitDx=0;exitDy=0;entryX=0.5;entryY=0;entryDx=0;entryDy=0;align=left;" edge="1" parent="WIyWlLk6GJQsqaUBKTNV-1" source="FEZSxYOMVHcEeAAmnI2d-34" target="FEZSxYOMVHcEeAAmnI2d-39">
          <mxGeometry y="10" relative="1" as="geometry">
            <mxPoint as="offset" />
          </mxGeometry>
        </mxCell>
        <mxCell id="FEZSxYOMVHcEeAAmnI2d-34" value="yardline &amp;lt; 0" style="rhombus;whiteSpace=wrap;html=1;" vertex="1" parent="WIyWlLk6GJQsqaUBKTNV-1">
          <mxGeometry x="310" y="650" width="100" height="50" as="geometry" />
        </mxCell>
        <mxCell id="FEZSxYOMVHcEeAAmnI2d-38" style="edgeStyle=orthogonalEdgeStyle;rounded=0;orthogonalLoop=1;jettySize=auto;html=1;exitX=1;exitY=0.5;exitDx=0;exitDy=0;entryX=0.5;entryY=1;entryDx=0;entryDy=0;" edge="1" parent="WIyWlLk6GJQsqaUBKTNV-1" source="FEZSxYOMVHcEeAAmnI2d-36" target="FEZSxYOMVHcEeAAmnI2d-19">
          <mxGeometry relative="1" as="geometry" />
        </mxCell>
        <mxCell id="FEZSxYOMVHcEeAAmnI2d-36" value="pos_score += 7" style="rounded=0;whiteSpace=wrap;html=1;" vertex="1" parent="WIyWlLk6GJQsqaUBKTNV-1">
          <mxGeometry x="450" y="662.5" width="120" height="25" as="geometry" />
        </mxCell>
        <mxCell id="FEZSxYOMVHcEeAAmnI2d-41" value="Yes" style="edgeStyle=orthogonalEdgeStyle;rounded=0;orthogonalLoop=1;jettySize=auto;html=1;exitX=1;exitY=0.5;exitDx=0;exitDy=0;entryX=0.5;entryY=1;entryDx=0;entryDy=0;verticalAlign=middle;" edge="1" parent="WIyWlLk6GJQsqaUBKTNV-1" source="FEZSxYOMVHcEeAAmnI2d-39" target="FEZSxYOMVHcEeAAmnI2d-19">
          <mxGeometry x="-0.9245" y="5" relative="1" as="geometry">
            <mxPoint as="offset" />
          </mxGeometry>
        </mxCell>
        <mxCell id="FEZSxYOMVHcEeAAmnI2d-43" value="No" style="edgeStyle=orthogonalEdgeStyle;rounded=0;orthogonalLoop=1;jettySize=auto;html=1;exitX=0;exitY=0.5;exitDx=0;exitDy=0;entryX=1;entryY=0.5;entryDx=0;entryDy=0;verticalAlign=bottom;" edge="1" parent="WIyWlLk6GJQsqaUBKTNV-1" source="FEZSxYOMVHcEeAAmnI2d-39" target="FEZSxYOMVHcEeAAmnI2d-42">
          <mxGeometry relative="1" as="geometry" />
        </mxCell>
        <mxCell id="FEZSxYOMVHcEeAAmnI2d-39" value="4th down fail?" style="rhombus;whiteSpace=wrap;html=1;" vertex="1" parent="WIyWlLk6GJQsqaUBKTNV-1">
          <mxGeometry x="310" y="720" width="100" height="50" as="geometry" />
        </mxCell>
        <mxCell id="FEZSxYOMVHcEeAAmnI2d-44" style="edgeStyle=orthogonalEdgeStyle;rounded=0;orthogonalLoop=1;jettySize=auto;html=1;exitX=0;exitY=0.5;exitDx=0;exitDy=0;entryX=0;entryY=0.5;entryDx=0;entryDy=0;" edge="1" parent="WIyWlLk6GJQsqaUBKTNV-1" source="FEZSxYOMVHcEeAAmnI2d-42" target="FEZSxYOMVHcEeAAmnI2d-0">
          <mxGeometry relative="1" as="geometry">
            <Array as="points">
              <mxPoint x="60" y="745" />
              <mxPoint x="60" y="80" />
            </Array>
          </mxGeometry>
        </mxCell>
        <mxCell id="FEZSxYOMVHcEeAAmnI2d-42" value="Update down" style="rounded=0;whiteSpace=wrap;html=1;" vertex="1" parent="WIyWlLk6GJQsqaUBKTNV-1">
          <mxGeometry x="120" y="732.5" width="120" height="25" as="geometry" />
        </mxCell>
      </root>
    </mxGraphModel>
  </diagram>
</mxfile>
